<?xml version="1.0" standalone="no"?><svg xmlns="http://www.w3.org/2000/svg" viewBox="0 0 1440 320"><path fill="#0099ff" fill-opacity="1" d="M0,224L34.3,202.7C68.6,181,137,139,206,117.3C274.3,96,343,96,411,122.7C480,149,549,203,617,197.3C685.7,192,754,128,823,106.7C891.4,85,960,107,1029,133.3C1097.1,160,1166,192,1234,186.7C1302.9,181,1371,139,1406,117.3L1440,96L1440,320L1405.7,320C1371.4,320,1303,320,1234,320C1165.7,320,1097,320,1029,320C960,320,891,320,823,320C754.3,320,686,320,617,320C548.6,320,480,320,411,320C342.9,320,274,320,206,320C137.1,320,69,320,34,320L0,320Z"></path></svg>